<svg xmlns="http://www.w3.org/2000/svg" xmlns:xlink="http://www.w3.org/1999/xlink" width="500" zoomAndPan="magnify" viewBox="0 0 375 374.999991" height="500" preserveAspectRatio="xMidYMid meet" version="1.0"><defs><clipPath id="8b44e53678"><path d="M 67 13.003906 L 262 13.003906 L 262 270 L 67 270 Z M 67 13.003906 " clip-rule="nonzero"/></clipPath><clipPath id="cdf7a9059a"><path d="M 67 13.003906 L 262 13.003906 L 262 262 L 67 262 Z M 67 13.003906 " clip-rule="nonzero"/></clipPath><clipPath id="05c57ab51e"><path d="M 37.5 193 L 327 193 L 327 309 L 37.5 309 Z M 37.5 193 " clip-rule="nonzero"/></clipPath><clipPath id="a3dbbbcd66"><path d="M 39 230 L 336 230 L 336 361.753906 L 39 361.753906 Z M 39 230 " clip-rule="nonzero"/></clipPath></defs><rect x="-37.5" width="450" fill="#ffffff" y="-37.499999" height="449.999989" fill-opacity="1"/><rect x="-37.5" width="450" fill="#211b16" y="-37.499999" height="449.999989" fill-opacity="1"/><g clip-path="url(#8b44e53678)"><path fill="#c1ff72" d="M 261.597656 191.035156 C 261.597656 222.074219 239.390625 248.90625 207.136719 261.6875 C 200.355469 264.335938 193.386719 266.332031 186.226562 267.667969 C 179.070312 269.003906 171.847656 269.660156 164.566406 269.632812 C 131.21875 269.632812 101.761719 255.988281 84.292969 235.222656 C 84.292969 235.222656 84.292969 235.222656 84.292969 235.179688 C 73.722656 222.597656 67.550781 207.402344 67.550781 191.035156 C 67.550781 170.976562 76.824219 152.679688 92.078125 138.792969 C 91.742188 139.671875 77.9375 175.628906 103.691406 204.195312 C 95.488281 163.042969 115.355469 145.980469 138.082031 124.730469 C 160.808594 103.480469 95.546875 108.710938 95.835938 71.824219 C 95.835938 71.824219 99.527344 87.886719 131.808594 96.242188 C 164.089844 104.601562 178.195312 109.285156 157.152344 143.554688 C 136.320312 177.523438 153.917969 198.765625 154.265625 199.179688 C 154.046875 198.695312 140.386719 168.386719 169.875 137.792969 C 199.558594 106.949219 198.253906 97.4375 164.601562 84.75 C 130.949219 72.0625 181.539062 55.773438 175.890625 13.003906 C 175.890625 13.003906 185.171875 32.160156 173.875 55.667969 C 160.125 84.28125 222.007812 78.726562 222.589844 106.980469 C 223.171875 135.230469 173.300781 151.945312 191.167969 192.304688 C 209.03125 232.660156 237.101562 190.28125 222.007812 163.761719 C 222.007812 163.761719 237.574219 179.617188 237.574219 196.332031 C 237.574219 196.332031 248.820312 187.976562 239.589844 168.089844 C 230.359375 148.199219 215.089844 131.476562 239.875 111.328125 C 239.582031 111.789062 224.5 135.394531 242.769531 150.519531 C 261.214844 165.78125 262.011719 183.804688 261.597656 191.035156 Z M 261.597656 191.035156 " fill-opacity="1" fill-rule="nonzero"/></g><g clip-path="url(#cdf7a9059a)"><path fill="#c1ff72" d="M 261.597656 191.035156 C 261.597656 222.074219 239.390625 248.90625 207.136719 261.6875 C 257.164062 237.429688 258.074219 192.359375 249.210938 176.757812 C 255.128906 198.996094 244.953125 225.003906 235.253906 219.101562 C 229.230469 215.425781 227.953125 209.019531 227.855469 204.683594 C 226.875 211.863281 222.839844 225.324219 206.511719 227.738281 C 206.511719 227.738281 141.429688 208.507812 185.09375 153.046875 C 228.757812 97.585938 194.976562 92.632812 194.976562 92.632812 C 194.976562 92.632812 221.078125 101.648438 180.695312 145.902344 C 143.464844 186.707031 161.226562 228.324219 175.414062 239.675781 C 106.59375 219.710938 133.640625 154.265625 134.015625 153.359375 C 96.894531 191.90625 122.429688 247.246094 122.429688 247.246094 C 48.449219 211.984375 89.792969 142.460938 91.964844 138.925781 C 63.582031 181.9375 68.550781 213.210938 84.265625 235.179688 C 73.695312 222.597656 67.519531 207.402344 67.519531 191.035156 C 67.519531 170.976562 76.792969 152.679688 92.046875 138.792969 C 91.714844 139.671875 77.90625 175.628906 103.664062 204.195312 C 95.460938 163.042969 115.328125 145.980469 138.054688 124.730469 C 160.777344 103.480469 95.546875 108.710938 95.835938 71.824219 C 95.835938 71.824219 99.527344 87.886719 131.808594 96.242188 C 164.089844 104.601562 178.195312 109.285156 157.152344 143.554688 C 136.320312 177.523438 153.917969 198.765625 154.265625 199.179688 C 154.046875 198.695312 140.386719 168.386719 169.875 137.792969 C 199.558594 106.949219 198.253906 97.4375 164.601562 84.75 C 130.949219 72.0625 181.539062 55.773438 175.890625 13.003906 C 175.890625 13.003906 185.171875 32.160156 173.875 55.667969 C 160.125 84.28125 222.007812 78.726562 222.589844 106.980469 C 223.171875 135.230469 173.300781 151.945312 191.167969 192.304688 C 209.03125 232.660156 237.101562 190.28125 222.007812 163.761719 C 222.007812 163.761719 237.574219 179.617188 237.574219 196.332031 C 237.574219 196.332031 248.820312 187.976562 239.589844 168.089844 C 230.359375 148.199219 215.089844 131.476562 239.875 111.328125 C 239.582031 111.789062 224.5 135.394531 242.769531 150.519531 C 261.214844 165.78125 262.011719 183.804688 261.597656 191.035156 Z M 261.597656 191.035156 " fill-opacity="1" fill-rule="nonzero"/></g><g clip-path="url(#05c57ab51e)"><path fill="#1b2123" d="M 279.777344 193.261719 C 295.125 195.679688 305.085938 200.867188 307.171875 208.734375 C 312.734375 229.703125 260.292969 261.808594 190.046875 280.429688 C 119.796875 299.054688 58.339844 297.167969 52.777344 276.230469 C 50.691406 268.355469 56.777344 258.917969 68.910156 249.214844 C 46.996094 263.210938 35.0625 277.394531 38.070312 288.710938 C 44.363281 312.457031 113.988281 314.609375 193.507812 293.507812 C 273.027344 272.40625 332.449219 236.039062 326.183594 212.3125 C 323.148438 201.023438 305.757812 194.589844 279.777344 193.261719 Z M 279.777344 193.261719 " fill-opacity="1" fill-rule="nonzero"/></g><g clip-path="url(#a3dbbbcd66)"><path fill="#1b2123" d="M 226.855469 297.742188 C 217.265625 301.273438 207.355469 304.402344 197.125 307.128906 C 186.902344 309.847656 176.722656 312.027344 166.617188 313.707031 C 106.144531 325.894531 55.628906 324.214844 39.410156 309.421875 C 62.113281 354.226562 134.152344 374.234375 209.613281 354.226562 C 285.078125 334.21875 337.730469 281.121094 335.246094 230.972656 C 328.503906 251.851562 285.4375 278.359375 226.855469 297.742188 Z M 226.855469 297.742188 " fill-opacity="1" fill-rule="nonzero"/></g></svg>