<svg xmlns="http://www.w3.org/2000/svg" xmlns:xlink="http://www.w3.org/1999/xlink" width="500" zoomAndPan="magnify" viewBox="0 0 375 374.999991" height="500" preserveAspectRatio="xMidYMid meet" version="1.0"><defs><clipPath id="463876376c"><path d="M 22 51.804688 L 170 51.804688 L 170 246 L 22 246 Z M 22 51.804688 " clip-rule="nonzero"/></clipPath><clipPath id="abb1aa5cb6"><path d="M 22 51.804688 L 170 51.804688 L 170 240 L 22 240 Z M 22 51.804688 " clip-rule="nonzero"/></clipPath><clipPath id="cd0be42460"><path d="M 1 216 L 225 216 L 225 315.054688 L 1 315.054688 Z M 1 216 " clip-rule="nonzero"/></clipPath></defs><g clip-path="url(#463876376c)"><path fill="#fe8b00" d="M 169.105469 186.097656 C 169.105469 209.511719 152.351562 229.753906 128.011719 239.394531 C 117.683594 243.429688 106.976562 245.425781 95.890625 245.386719 C 70.726562 245.386719 48.496094 235.09375 35.316406 219.429688 C 35.316406 219.429688 35.316406 219.429688 35.316406 219.398438 C 27.339844 209.910156 22.679688 198.445312 22.679688 186.097656 C 22.679688 170.96875 29.679688 157.164062 41.1875 146.691406 C 40.9375 147.355469 30.519531 174.476562 49.953125 196.027344 C 43.765625 164.984375 58.753906 152.113281 75.902344 136.082031 C 93.050781 120.054688 43.808594 124 44.027344 96.171875 C 44.027344 96.171875 46.8125 108.289062 71.171875 114.59375 C 95.53125 120.898438 106.171875 124.433594 90.292969 150.28125 C 74.574219 175.90625 87.851562 191.929688 88.117188 192.242188 C 87.949219 191.878906 77.644531 169.015625 99.894531 145.9375 C 122.292969 122.671875 121.308594 115.492188 95.914062 105.925781 C 70.523438 96.355469 108.695312 84.066406 104.433594 51.804688 C 104.433594 51.804688 111.4375 66.253906 102.914062 83.988281 C 92.539062 105.570312 139.234375 101.378906 139.671875 122.691406 C 140.109375 144.003906 102.480469 156.613281 115.960938 187.054688 C 129.441406 217.496094 150.621094 185.53125 139.234375 165.523438 C 139.234375 165.523438 150.980469 177.484375 150.980469 190.09375 C 150.980469 190.09375 159.464844 183.789062 152.5 168.789062 C 145.535156 153.789062 134.011719 141.171875 152.714844 125.972656 C 152.496094 126.320312 141.113281 144.128906 154.898438 155.539062 C 168.816406 167.050781 169.417969 180.644531 169.105469 186.097656 Z M 169.105469 186.097656 " fill-opacity="1" fill-rule="nonzero"/></g><g clip-path="url(#abb1aa5cb6)"><path fill="#febf00" d="M 169.105469 186.097656 C 169.105469 209.511719 152.351562 229.753906 128.011719 239.394531 C 165.761719 221.09375 166.445312 187.097656 159.757812 175.328125 C 164.226562 192.101562 156.546875 211.722656 149.230469 207.269531 C 144.683594 204.496094 143.71875 199.664062 143.644531 196.394531 C 142.90625 201.8125 139.859375 211.964844 127.539062 213.785156 C 127.539062 213.785156 78.429688 199.28125 111.378906 157.441406 C 144.324219 115.605469 118.835938 111.871094 118.835938 111.871094 C 118.835938 111.871094 138.53125 118.671875 108.058594 152.054688 C 79.96875 182.832031 93.367188 214.226562 104.074219 222.792969 C 52.144531 207.730469 72.550781 158.363281 72.835938 157.679688 C 44.824219 186.757812 64.09375 228.5 64.09375 228.5 C 8.269531 201.902344 39.464844 149.457031 41.105469 146.792969 C 19.6875 179.238281 23.4375 202.828125 35.292969 219.398438 C 27.316406 209.910156 22.660156 198.445312 22.660156 186.097656 C 22.660156 170.96875 29.65625 157.164062 41.167969 146.691406 C 40.917969 147.355469 30.496094 174.476562 49.933594 196.027344 C 43.742188 164.984375 58.734375 152.113281 75.882812 136.082031 C 93.03125 120.054688 43.808594 124 44.027344 96.171875 C 44.027344 96.171875 46.8125 108.289062 71.171875 114.59375 C 95.53125 120.898438 106.171875 124.433594 90.292969 150.28125 C 74.574219 175.90625 87.851562 191.929688 88.117188 192.242188 C 87.949219 191.878906 77.644531 169.015625 99.894531 145.9375 C 122.292969 122.671875 121.308594 115.492188 95.914062 105.925781 C 70.523438 96.355469 108.695312 84.066406 104.433594 51.804688 C 104.433594 51.804688 111.4375 66.253906 102.914062 83.988281 C 92.539062 105.570312 139.234375 101.378906 139.671875 122.691406 C 140.109375 144.003906 102.480469 156.613281 115.960938 187.054688 C 129.441406 217.496094 150.621094 185.53125 139.234375 165.523438 C 139.234375 165.523438 150.980469 177.484375 150.980469 190.09375 C 150.980469 190.09375 159.464844 183.789062 152.5 168.789062 C 145.535156 153.789062 134.011719 141.171875 152.714844 125.972656 C 152.496094 126.320312 141.113281 144.128906 154.898438 155.539062 C 168.816406 167.050781 169.417969 180.644531 169.105469 186.097656 Z M 169.105469 186.097656 " fill-opacity="1" fill-rule="nonzero"/></g><path fill="#211b16" d="M 182.824219 187.777344 C 194.402344 189.601562 201.921875 193.515625 203.496094 199.449219 C 207.691406 215.265625 168.121094 239.484375 115.113281 253.53125 C 62.105469 267.582031 15.730469 266.160156 11.535156 250.363281 C 9.960938 244.425781 14.554688 237.304688 23.710938 229.984375 C 7.171875 240.542969 -1.832031 251.242188 0.4375 259.777344 C 5.183594 277.691406 57.722656 279.3125 117.726562 263.398438 C 177.730469 247.480469 222.570312 220.046875 217.84375 202.148438 C 215.550781 193.632812 202.429688 188.777344 182.824219 187.777344 Z M 182.824219 187.777344 " fill-opacity="1" fill-rule="nonzero"/><g clip-path="url(#cd0be42460)"><path fill="#211b16" d="M 142.890625 266.59375 C 135.65625 269.253906 128.175781 271.613281 120.457031 273.671875 C 112.742188 275.722656 105.058594 277.367188 97.4375 278.632812 C 51.804688 287.828125 13.6875 286.558594 1.449219 275.402344 C 18.582031 309.199219 72.9375 324.292969 129.878906 309.199219 C 186.824219 294.105469 226.554688 254.050781 224.679688 216.222656 C 219.59375 231.976562 187.097656 251.96875 142.890625 266.59375 Z M 142.890625 266.59375 " fill-opacity="1" fill-rule="nonzero"/></g><path fill="#211b16" d="M 229.4375 245.386719 C 229.4375 245.386719 224.738281 216.75 256.855469 201.746094 C 288.972656 186.746094 331.109375 174.3125 347.550781 146 C 363.992188 117.6875 406.773438 148.007812 337.265625 177.277344 C 267.757812 206.546875 247.574219 206.867188 229.4375 245.386719 Z M 229.4375 245.386719 " fill-opacity="1" fill-rule="nonzero"/></svg>