<svg xmlns="http://www.w3.org/2000/svg" xmlns:xlink="http://www.w3.org/1999/xlink" width="514" zoomAndPan="magnify" viewBox="0 0 385.5 153.750002" height="205" preserveAspectRatio="xMidYMid meet" version="1.0"><defs><g/><clipPath id="21575af21f"><path d="M 32 14 L 87 14 L 87 70 L 32 70 Z M 32 14 " clip-rule="nonzero"/></clipPath><clipPath id="39dfab5d6d"><path d="M 27.441406 55.097656 L 62.902344 2.246094 L 97.722656 25.609375 L 62.257812 78.460938 Z M 27.441406 55.097656 " clip-rule="nonzero"/></clipPath><clipPath id="fefc4cc2d2"><path d="M 27.441406 55.097656 L 62.902344 2.246094 L 97.722656 25.609375 L 62.257812 78.460938 Z M 27.441406 55.097656 " clip-rule="nonzero"/></clipPath><clipPath id="ea974f7461"><path d="M 34 15 L 86 15 L 86 68 L 34 68 Z M 34 15 " clip-rule="nonzero"/></clipPath><clipPath id="bbf1cefd38"><path d="M 27.441406 55.097656 L 62.902344 2.246094 L 97.722656 25.609375 L 62.257812 78.460938 Z M 27.441406 55.097656 " clip-rule="nonzero"/></clipPath><clipPath id="f0678fa940"><path d="M 27.441406 55.097656 L 62.902344 2.246094 L 97.722656 25.609375 L 62.257812 78.460938 Z M 27.441406 55.097656 " clip-rule="nonzero"/></clipPath><clipPath id="1315308631"><path d="M 39 55 L 50 55 L 50 60 L 39 60 Z M 39 55 " clip-rule="nonzero"/></clipPath><clipPath id="7e9aabe82e"><path d="M 27.441406 55.097656 L 62.902344 2.246094 L 97.722656 25.609375 L 62.257812 78.460938 Z M 27.441406 55.097656 " clip-rule="nonzero"/></clipPath><clipPath id="b65fed4498"><path d="M 27.441406 55.097656 L 62.902344 2.246094 L 97.722656 25.609375 L 62.257812 78.460938 Z M 27.441406 55.097656 " clip-rule="nonzero"/></clipPath><clipPath id="6babf8f7dc"><path d="M 54 27 L 64 27 L 64 39 L 54 39 Z M 54 27 " clip-rule="nonzero"/></clipPath><clipPath id="099c3bb7f6"><path d="M 27.441406 55.097656 L 62.902344 2.246094 L 97.722656 25.609375 L 62.257812 78.460938 Z M 27.441406 55.097656 " clip-rule="nonzero"/></clipPath><clipPath id="cebda4fc0b"><path d="M 27.441406 55.097656 L 62.902344 2.246094 L 97.722656 25.609375 L 62.257812 78.460938 Z M 27.441406 55.097656 " clip-rule="nonzero"/></clipPath><clipPath id="bd712e6b05"><path d="M 54 24 L 85 24 L 85 51 L 54 51 Z M 54 24 " clip-rule="nonzero"/></clipPath><clipPath id="ef1bf8197a"><path d="M 27.441406 55.097656 L 62.902344 2.246094 L 97.722656 25.609375 L 62.257812 78.460938 Z M 27.441406 55.097656 " clip-rule="nonzero"/></clipPath><clipPath id="6884ce13b8"><path d="M 27.441406 55.097656 L 62.902344 2.246094 L 97.722656 25.609375 L 62.257812 78.460938 Z M 27.441406 55.097656 " clip-rule="nonzero"/></clipPath><clipPath id="adfb74b931"><path d="M 46 35 L 60 35 L 60 42 L 46 42 Z M 46 35 " clip-rule="nonzero"/></clipPath><clipPath id="a6f0fca406"><path d="M 27.441406 55.097656 L 62.902344 2.246094 L 97.722656 25.609375 L 62.257812 78.460938 Z M 27.441406 55.097656 " clip-rule="nonzero"/></clipPath><clipPath id="924a90940f"><path d="M 27.441406 55.097656 L 62.902344 2.246094 L 97.722656 25.609375 L 62.257812 78.460938 Z M 27.441406 55.097656 " clip-rule="nonzero"/></clipPath><clipPath id="94e7bf92a7"><path d="M 74 36 L 78 36 L 78 42 L 74 42 Z M 74 36 " clip-rule="nonzero"/></clipPath><clipPath id="acb3d6663a"><path d="M 27.441406 55.097656 L 62.902344 2.246094 L 97.722656 25.609375 L 62.257812 78.460938 Z M 27.441406 55.097656 " clip-rule="nonzero"/></clipPath><clipPath id="e44952bdc9"><path d="M 27.441406 55.097656 L 62.902344 2.246094 L 97.722656 25.609375 L 62.257812 78.460938 Z M 27.441406 55.097656 " clip-rule="nonzero"/></clipPath><clipPath id="fb7d01b395"><path d="M 61 28 L 79 28 L 79 44 L 61 44 Z M 61 28 " clip-rule="nonzero"/></clipPath><clipPath id="bd783a50ed"><path d="M 27.441406 55.097656 L 62.902344 2.246094 L 97.722656 25.609375 L 62.257812 78.460938 Z M 27.441406 55.097656 " clip-rule="nonzero"/></clipPath><clipPath id="cf17c865b9"><path d="M 27.441406 55.097656 L 62.902344 2.246094 L 97.722656 25.609375 L 62.257812 78.460938 Z M 27.441406 55.097656 " clip-rule="nonzero"/></clipPath><clipPath id="4fe6b1a426"><path d="M 54 42 L 67 42 L 67 52 L 54 52 Z M 54 42 " clip-rule="nonzero"/></clipPath><clipPath id="d447f334b6"><path d="M 27.441406 55.097656 L 62.902344 2.246094 L 97.722656 25.609375 L 62.257812 78.460938 Z M 27.441406 55.097656 " clip-rule="nonzero"/></clipPath><clipPath id="b047861416"><path d="M 27.441406 55.097656 L 62.902344 2.246094 L 97.722656 25.609375 L 62.257812 78.460938 Z M 27.441406 55.097656 " clip-rule="nonzero"/></clipPath><clipPath id="82ea0a0c41"><path d="M 45 55 L 51 55 L 51 60 L 45 60 Z M 45 55 " clip-rule="nonzero"/></clipPath><clipPath id="184b440e00"><path d="M 27.441406 55.097656 L 62.902344 2.246094 L 97.722656 25.609375 L 62.257812 78.460938 Z M 27.441406 55.097656 " clip-rule="nonzero"/></clipPath><clipPath id="3f5403e614"><path d="M 27.441406 55.097656 L 62.902344 2.246094 L 97.722656 25.609375 L 62.257812 78.460938 Z M 27.441406 55.097656 " clip-rule="nonzero"/></clipPath><clipPath id="5c6d39952b"><path d="M 106 46.324219 L 141 46.324219 L 141 91 L 106 91 Z M 106 46.324219 " clip-rule="nonzero"/></clipPath><clipPath id="3593e11645"><path d="M 106 46.324219 L 141 46.324219 L 141 90 L 106 90 Z M 106 46.324219 " clip-rule="nonzero"/></clipPath><clipPath id="b68ed4ac8c"><path d="M 101.496094 77 L 152 77 L 152 98 L 101.496094 98 Z M 101.496094 77 " clip-rule="nonzero"/></clipPath><clipPath id="8a28dbbb0b"><path d="M 101.496094 84 L 153 84 L 153 106.976562 L 101.496094 106.976562 Z M 101.496094 84 " clip-rule="nonzero"/></clipPath></defs><g fill="#211b16" fill-opacity="1"><g transform="translate(48.261609, 106.908718)"><g><path d="M 23.15625 -47.25 L 23.15625 -33.953125 L 49.84375 -33.953125 L 49.84375 -20.734375 L 23.15625 -20.734375 L 23.15625 0 L 6.046875 0 L 6.046875 -60.46875 L 53.46875 -60.46875 L 53.46875 -47.25 Z M 23.15625 -47.25 "/></g></g></g><g fill="#211b16" fill-opacity="1"><g transform="translate(97.154216, 106.908718)"><g/></g></g><g fill="#211b16" fill-opacity="1"><g transform="translate(115.720123, 106.908718)"><g/></g></g><g fill="#211b16" fill-opacity="1"><g transform="translate(134.28603, 106.908718)"><g/></g></g><g fill="#211b16" fill-opacity="1"><g transform="translate(152.856033, 106.908718)"><g><path d="M 55.015625 -64.09375 L 55.015625 0 L 39.390625 0 L 39.390625 -4.671875 C 36.335938 -1.035156 31.757812 0.78125 25.65625 0.78125 C 21.394531 0.78125 17.503906 -0.210938 13.984375 -2.203125 C 10.472656 -4.191406 7.695312 -7.023438 5.65625 -10.703125 C 3.613281 -14.390625 2.59375 -18.65625 2.59375 -23.5 C 2.59375 -28.332031 3.613281 -32.578125 5.65625 -36.234375 C 7.695312 -39.890625 10.472656 -42.695312 13.984375 -44.65625 C 17.503906 -46.613281 21.394531 -47.59375 25.65625 -47.59375 C 31.238281 -47.59375 35.554688 -45.976562 38.609375 -42.75 L 38.609375 -64.09375 Z M 29.109375 -12.265625 C 31.929688 -12.265625 34.265625 -13.253906 36.109375 -15.234375 C 37.953125 -17.222656 38.875 -19.976562 38.875 -23.5 C 38.875 -26.945312 37.960938 -29.648438 36.140625 -31.609375 C 34.328125 -33.566406 31.984375 -34.546875 29.109375 -34.546875 C 26.234375 -34.546875 23.875 -33.566406 22.03125 -31.609375 C 20.1875 -29.648438 19.265625 -26.945312 19.265625 -23.5 C 19.265625 -19.976562 20.1875 -17.222656 22.03125 -15.234375 C 23.875 -13.253906 26.234375 -12.265625 29.109375 -12.265625 Z M 29.109375 -12.265625 "/></g></g></g><g fill="#211b16" fill-opacity="1"><g transform="translate(206.569925, 106.908718)"><g><path d="M 55.015625 -64.09375 L 55.015625 0 L 39.390625 0 L 39.390625 -4.671875 C 36.335938 -1.035156 31.757812 0.78125 25.65625 0.78125 C 21.394531 0.78125 17.503906 -0.210938 13.984375 -2.203125 C 10.472656 -4.191406 7.695312 -7.023438 5.65625 -10.703125 C 3.613281 -14.390625 2.59375 -18.65625 2.59375 -23.5 C 2.59375 -28.332031 3.613281 -32.578125 5.65625 -36.234375 C 7.695312 -39.890625 10.472656 -42.695312 13.984375 -44.65625 C 17.503906 -46.613281 21.394531 -47.59375 25.65625 -47.59375 C 31.238281 -47.59375 35.554688 -45.976562 38.609375 -42.75 L 38.609375 -64.09375 Z M 29.109375 -12.265625 C 31.929688 -12.265625 34.265625 -13.253906 36.109375 -15.234375 C 37.953125 -17.222656 38.875 -19.976562 38.875 -23.5 C 38.875 -26.945312 37.960938 -29.648438 36.140625 -31.609375 C 34.328125 -33.566406 31.984375 -34.546875 29.109375 -34.546875 C 26.234375 -34.546875 23.875 -33.566406 22.03125 -31.609375 C 20.1875 -29.648438 19.265625 -26.945312 19.265625 -23.5 C 19.265625 -19.976562 20.1875 -17.222656 22.03125 -15.234375 C 23.875 -13.253906 26.234375 -12.265625 29.109375 -12.265625 Z M 29.109375 -12.265625 "/></g></g></g><g fill="#211b16" fill-opacity="1"><g transform="translate(260.283816, 106.908718)"><g><path d="M 5.265625 -46.8125 L 21.6875 -46.8125 L 21.6875 0 L 5.265625 0 Z M 13.484375 -52 C 10.484375 -52 8.0625 -52.832031 6.21875 -54.5 C 4.375 -56.164062 3.453125 -58.238281 3.453125 -60.71875 C 3.453125 -63.195312 4.375 -65.269531 6.21875 -66.9375 C 8.0625 -68.613281 10.484375 -69.453125 13.484375 -69.453125 C 16.472656 -69.453125 18.890625 -68.65625 20.734375 -67.0625 C 22.578125 -65.476562 23.5 -63.453125 23.5 -60.984375 C 23.5 -58.390625 22.578125 -56.242188 20.734375 -54.546875 C 18.890625 -52.847656 16.472656 -52 13.484375 -52 Z M 13.484375 -52 "/></g></g></g><g fill="#211b16" fill-opacity="1"><g transform="translate(280.74961, 106.908718)"><g><path d="M 53.125 -23.328125 C 53.125 -23.210938 53.035156 -21.859375 52.859375 -19.265625 L 18.828125 -19.265625 C 19.515625 -16.847656 20.851562 -14.988281 22.84375 -13.6875 C 24.832031 -12.394531 27.320312 -11.75 30.3125 -11.75 C 32.5625 -11.75 34.503906 -12.0625 36.140625 -12.6875 C 37.785156 -13.320312 39.441406 -14.363281 41.109375 -15.8125 L 49.75 -6.828125 C 45.195312 -1.753906 38.546875 0.78125 29.796875 0.78125 C 24.328125 0.78125 19.519531 -0.253906 15.375 -2.328125 C 11.226562 -4.398438 8.015625 -7.28125 5.734375 -10.96875 C 3.460938 -14.65625 2.328125 -18.832031 2.328125 -23.5 C 2.328125 -28.101562 3.4375 -32.234375 5.65625 -35.890625 C 7.875 -39.546875 10.941406 -42.410156 14.859375 -44.484375 C 18.773438 -46.554688 23.179688 -47.59375 28.078125 -47.59375 C 32.734375 -47.59375 36.960938 -46.628906 40.765625 -44.703125 C 44.566406 -42.773438 47.578125 -39.976562 49.796875 -36.3125 C 52.015625 -32.65625 53.125 -28.328125 53.125 -23.328125 Z M 28.15625 -35.9375 C 25.625 -35.9375 23.507812 -35.210938 21.8125 -33.765625 C 20.113281 -32.328125 19.035156 -30.375 18.578125 -27.90625 L 37.75 -27.90625 C 37.289062 -30.375 36.207031 -32.328125 34.5 -33.765625 C 32.800781 -35.210938 30.6875 -35.9375 28.15625 -35.9375 Z M 28.15625 -35.9375 "/></g></g></g><g clip-path="url(#21575af21f)"><g clip-path="url(#39dfab5d6d)"><g clip-path="url(#fefc4cc2d2)"><path fill="#1b2123" d="M 82.425781 47.457031 C 75.703125 50.238281 68.789062 54.6875 62.960938 59.984375 C 60.058594 62.621094 57.496094 65.394531 55.34375 68.234375 L 54.246094 69.683594 L 49.671875 59.4375 C 47.644531 60.796875 43.199219 63.160156 38.460938 61.671875 C 36.160156 60.953125 34.632812 59.789062 33.785156 58.113281 C 32.671875 55.921875 31.179688 49.5625 37.21875 44.535156 C 41.628906 40.523438 48.625 39.59375 50.082031 39.441406 C 50.558594 39.140625 50.988281 38.816406 51.394531 38.445312 C 53.027344 36.964844 54 34.96875 55.128906 32.660156 C 56.734375 29.363281 58.738281 25.261719 63.492188 20.941406 C 64.078125 20.410156 64.699219 19.878906 65.34375 19.363281 C 70.964844 14.855469 75.460938 13.230469 79.082031 14.386719 C 80.6875 14.902344 84.851562 17.730469 86.339844 23.089844 C 87.191406 25.925781 86.285156 28.9375 84.675781 31.953125 C 83.914062 33.378906 82.445312 35.585938 79.777344 38.011719 C 79.046875 38.675781 78.386719 39.207031 77.886719 39.589844 L 83.742188 46.914062 Z M 82.425781 47.457031 " fill-opacity="1" fill-rule="nonzero"/></g></g></g><g clip-path="url(#ea974f7461)"><g clip-path="url(#bbf1cefd38)"><g clip-path="url(#f0678fa940)"><path fill="#ffffff" d="M 84.785156 23.429688 C 85.710938 26.511719 84.890625 29.433594 83.457031 31.910156 C 80.886719 36.351562 76.339844 39.375 76.339844 39.375 L 82.003906 46.457031 C 79.402344 47.535156 76.777344 48.851562 74.199219 50.363281 C 66.683594 54.78125 59.554688 60.878906 54.480469 67.574219 L 50.101562 57.765625 C 50.101562 57.765625 44.589844 62.464844 38.769531 60.640625 C 35.074219 59.480469 32.910156 55.605469 34.78125 49.652344 C 37.539062 41.757812 50.441406 40.492188 50.441406 40.492188 C 56.871094 36.683594 55.15625 28.921875 66.023438 20.210938 C 76.855469 11.53125 82.195312 14.824219 84.785156 23.429688 Z M 84.785156 23.429688 " fill-opacity="1" fill-rule="nonzero"/></g></g></g><g clip-path="url(#1315308631)"><g clip-path="url(#7e9aabe82e)"><g clip-path="url(#b65fed4498)"><path fill="#211b16" d="M 49.433594 57.941406 C 49.433594 57.941406 45.039062 60.136719 42.441406 59.867188 C 39.78125 59.589844 38.738281 58.378906 39.253906 58.332031 C 39.765625 58.289062 42.292969 59.085938 43.4375 57.90625 C 44.582031 56.722656 41.621094 55.902344 43.027344 55.46875 C 44.433594 55.03125 46.464844 55.4375 47.753906 56.09375 C 49.042969 56.75 49.433594 57.941406 49.433594 57.941406 Z M 49.433594 57.941406 " fill-opacity="1" fill-rule="nonzero"/></g></g></g><g clip-path="url(#6babf8f7dc)"><g clip-path="url(#099c3bb7f6)"><g clip-path="url(#cebda4fc0b)"><path fill="#211b16" d="M 54.105469 38.535156 C 54.105469 38.535156 56.933594 36.574219 58.847656 32.773438 C 60.765625 28.976562 62.542969 26.625 63.347656 27.511719 C 64.152344 28.394531 64.210938 30.695312 61.242188 34.128906 C 58.269531 37.566406 54.105469 38.535156 54.105469 38.535156 Z M 54.105469 38.535156 " fill-opacity="1" fill-rule="nonzero"/></g></g></g><g clip-path="url(#bd712e6b05)"><g clip-path="url(#ef1bf8197a)"><g clip-path="url(#6884ce13b8)"><path fill="#211b16" d="M 84.011719 28.109375 C 84.003906 28.191406 83.703125 30.449219 83.457031 31.910156 C 80.886719 36.351562 76.339844 39.375 76.339844 39.375 L 82.003906 46.457031 C 79.402344 47.535156 76.777344 48.851562 74.199219 50.367188 C 74.617188 49.503906 74.726562 48.414062 74.109375 47.082031 C 72.269531 43.136719 70.28125 41.375 70.28125 41.375 C 70.28125 41.375 68.003906 46.613281 64.828125 48.707031 C 61.675781 50.785156 54.785156 50.019531 54.675781 50.007812 C 54.734375 49.972656 57.957031 48.210938 59.449219 46.660156 C 60.957031 45.09375 60.957031 45.09375 60.957031 45.09375 C 58.492188 44.140625 56.210938 43.167969 57.585938 41.8125 C 57.585938 41.8125 65.375 42.859375 71.570312 35.054688 C 77.761719 27.246094 75.527344 23.929688 78.488281 24.605469 C 81.449219 25.285156 79.8125 32.515625 81.5 31.578125 C 83.160156 30.65625 83.984375 28.195312 84.011719 28.109375 Z M 84.011719 28.109375 " fill-opacity="1" fill-rule="nonzero"/></g></g></g><g clip-path="url(#adfb74b931)"><g clip-path="url(#a6f0fca406)"><g clip-path="url(#924a90940f)"><path fill="#1b2123" d="M 46.75 41.039062 C 46.75 41.039062 51.082031 40.878906 54.480469 39.601562 C 57.875 38.324219 59.453125 35.480469 59.453125 35.480469 C 59.453125 35.480469 56.441406 37.617188 54.105469 38.535156 C 51.769531 39.453125 51.242188 39.527344 51.242188 39.527344 Z M 46.75 41.039062 " fill-opacity="1" fill-rule="nonzero"/></g></g></g><g clip-path="url(#94e7bf92a7)"><g clip-path="url(#acb3d6663a)"><g clip-path="url(#e44952bdc9)"><path fill="#1b2123" d="M 74.566406 36.304688 C 74.652344 37.003906 76.332031 39.316406 77.660156 41.015625 L 77.886719 39.589844 C 76.890625 38.402344 76.066406 37.328125 75.386719 36.351562 Z M 74.566406 36.304688 " fill-opacity="1" fill-rule="nonzero"/></g></g></g><g clip-path="url(#fb7d01b395)"><g clip-path="url(#bd783a50ed)"><g clip-path="url(#cf17c865b9)"><path fill="#1b2123" d="M 78.84375 28.136719 C 78.84375 28.136719 79.011719 32.625 72.804688 37.605469 C 66.59375 42.585938 61.324219 43.394531 61.324219 43.394531 C 61.324219 43.394531 66.804688 43.578125 72.808594 39.390625 C 76.523438 36.675781 75.539062 37.390625 77.355469 34.914062 C 79.171875 32.441406 78.84375 28.136719 78.84375 28.136719 Z M 78.84375 28.136719 " fill-opacity="1" fill-rule="nonzero"/></g></g></g><g clip-path="url(#4fe6b1a426)"><g clip-path="url(#d447f334b6)"><g clip-path="url(#b047861416)"><path fill="#1b2123" d="M 64.636719 42.726562 C 63.363281 46.328125 59.007812 50.003906 54.3125 50.949219 C 54.3125 50.949219 56.160156 51.5625 60.25 49.488281 C 64.339844 47.410156 66.6875 42 66.6875 42 Z M 64.636719 42.726562 " fill-opacity="1" fill-rule="nonzero"/></g></g></g><g clip-path="url(#82ea0a0c41)"><g clip-path="url(#184b440e00)"><g clip-path="url(#3f5403e614)"><path fill="#1b2123" d="M 50.558594 59.089844 C 50.507812 58.773438 50.300781 57.757812 49.640625 57.03125 C 48.976562 56.300781 45.226562 55.96875 45.226562 55.96875 C 45.226562 55.96875 47.699219 56.859375 48.492188 57.46875 C 49.28125 58.078125 49.671875 59.4375 49.671875 59.4375 Z M 50.558594 59.089844 " fill-opacity="1" fill-rule="nonzero"/></g></g></g><g clip-path="url(#5c6d39952b)"><path fill="#fe8b00" d="M 140.25 77.265625 C 140.25 82.660156 136.40625 87.324219 130.832031 89.542969 C 128.464844 90.472656 126.007812 90.933594 123.46875 90.925781 C 117.703125 90.925781 112.609375 88.554688 109.585938 84.945312 C 109.585938 84.945312 109.585938 84.945312 109.585938 84.9375 C 107.757812 82.75 106.691406 80.109375 106.691406 77.265625 C 106.691406 73.78125 108.296875 70.597656 110.933594 68.1875 C 110.875 68.339844 108.488281 74.589844 112.941406 79.554688 C 111.523438 72.402344 114.957031 69.433594 118.886719 65.742188 C 122.816406 62.050781 111.53125 62.957031 111.582031 56.546875 C 111.582031 56.546875 112.222656 59.339844 117.804688 60.792969 C 123.386719 62.246094 125.824219 63.058594 122.1875 69.015625 C 118.585938 74.917969 121.625 78.609375 121.6875 78.679688 C 121.648438 78.597656 119.289062 73.328125 124.386719 68.011719 C 129.519531 62.652344 129.292969 61 123.476562 58.792969 C 117.65625 56.589844 126.402344 53.757812 125.425781 46.324219 C 125.425781 46.324219 127.03125 49.65625 125.078125 53.738281 C 122.699219 58.710938 133.402344 57.746094 133.503906 62.65625 C 133.601562 67.566406 124.980469 70.472656 128.070312 77.484375 C 131.15625 84.5 136.011719 77.136719 133.402344 72.527344 C 133.402344 72.527344 136.09375 75.28125 136.09375 78.1875 C 136.09375 78.1875 138.039062 76.734375 136.441406 73.277344 C 134.847656 69.820312 132.207031 66.914062 136.492188 63.414062 C 136.441406 63.492188 133.832031 67.597656 136.992188 70.226562 C 140.183594 72.878906 140.320312 76.007812 140.25 77.265625 Z M 140.25 77.265625 " fill-opacity="1" fill-rule="nonzero"/></g><g clip-path="url(#3593e11645)"><path fill="#febf00" d="M 140.25 77.265625 C 140.25 82.660156 136.40625 87.324219 130.832031 89.542969 C 139.480469 85.328125 139.636719 77.496094 138.105469 74.785156 C 139.128906 78.648438 137.371094 83.167969 135.691406 82.144531 C 134.652344 81.503906 134.429688 80.390625 134.414062 79.636719 C 134.242188 80.886719 133.546875 83.226562 130.722656 83.644531 C 130.722656 83.644531 119.46875 80.300781 127.019531 70.664062 C 134.570312 61.023438 128.726562 60.164062 128.726562 60.164062 C 128.726562 60.164062 133.242188 61.730469 126.257812 69.421875 C 119.820312 76.511719 122.890625 83.746094 125.34375 85.71875 C 113.441406 82.25 118.121094 70.875 118.183594 70.71875 C 111.765625 77.417969 116.183594 87.035156 116.183594 87.035156 C 103.386719 80.90625 110.539062 68.824219 110.914062 68.210938 C 106.003906 75.683594 106.863281 81.121094 109.582031 84.9375 C 107.753906 82.75 106.6875 80.109375 106.6875 77.265625 C 106.6875 73.78125 108.289062 70.597656 110.929688 68.1875 C 110.871094 68.339844 108.484375 74.589844 112.9375 79.554688 C 111.519531 72.402344 114.953125 69.433594 118.882812 65.742188 C 122.8125 62.050781 111.53125 62.957031 111.582031 56.546875 C 111.582031 56.546875 112.222656 59.339844 117.804688 60.792969 C 123.386719 62.246094 125.824219 63.058594 122.1875 69.015625 C 118.585938 74.917969 121.625 78.609375 121.6875 78.679688 C 121.648438 78.597656 119.289062 73.328125 124.386719 68.011719 C 129.519531 62.652344 129.292969 61 123.476562 58.792969 C 117.65625 56.589844 126.402344 53.757812 125.425781 46.324219 C 125.425781 46.324219 127.03125 49.65625 125.078125 53.738281 C 122.699219 58.710938 133.402344 57.746094 133.503906 62.65625 C 133.601562 67.566406 124.980469 70.472656 128.070312 77.484375 C 131.15625 84.5 136.011719 77.136719 133.402344 72.527344 C 133.402344 72.527344 136.09375 75.28125 136.09375 78.1875 C 136.09375 78.1875 138.039062 76.734375 136.441406 73.277344 C 134.847656 69.820312 132.207031 66.914062 136.492188 63.414062 C 136.441406 63.492188 133.832031 67.597656 136.992188 70.226562 C 140.183594 72.878906 140.320312 76.007812 140.25 77.265625 Z M 140.25 77.265625 " fill-opacity="1" fill-rule="nonzero"/></g><g clip-path="url(#b68ed4ac8c)"><path fill="#211b16" d="M 143.390625 77.652344 C 146.046875 78.074219 147.769531 78.976562 148.128906 80.34375 C 149.089844 83.984375 140.023438 89.566406 127.875 92.800781 C 115.726562 96.039062 105.097656 95.710938 104.136719 92.074219 C 103.777344 90.703125 104.828125 89.0625 106.925781 87.375 C 103.136719 89.808594 101.074219 92.273438 101.59375 94.242188 C 102.683594 98.367188 114.722656 98.742188 128.472656 95.074219 C 142.226562 91.40625 152.5 85.085938 151.417969 80.964844 C 150.890625 79 147.882812 77.882812 143.390625 77.652344 Z M 143.390625 77.652344 " fill-opacity="1" fill-rule="nonzero"/></g><g clip-path="url(#8a28dbbb0b)"><path fill="#211b16" d="M 134.238281 95.8125 C 132.582031 96.425781 130.867188 96.96875 129.097656 97.441406 C 127.332031 97.914062 125.570312 98.292969 123.824219 98.585938 C 113.367188 100.703125 104.628906 100.410156 101.824219 97.839844 C 105.75 105.628906 118.207031 109.105469 131.257812 105.628906 C 144.308594 102.148438 153.414062 92.921875 152.984375 84.207031 C 151.816406 87.835938 144.371094 92.441406 134.238281 95.8125 Z M 134.238281 95.8125 " fill-opacity="1" fill-rule="nonzero"/></g></svg>